<svg width="246" height="182" viewBox="0 0 246 182" fill="none" xmlns="http://www.w3.org/2000/svg">
<path d="M161.122 29.0439L240.688 58.1287C244.434 59.4975 246.364 63.6566 245.001 67.4181L220.978 133.706C219.615 137.468 215.474 139.407 211.729 138.038L132.163 108.954C128.417 107.585 126.487 103.426 127.85 99.6642L151.873 33.376C153.236 29.6145 157.377 27.6751 161.122 29.0439Z" fill="#DFE7F4"/>
<path d="M232.989 100.562L192.754 85.854L178.274 125.809L211.492 137.951C215.366 139.367 219.615 137.465 220.978 133.705L232.989 100.562Z" fill="#151A21"/>
<path d="M151.873 33.3755L139.861 66.5198L192.849 85.8891L207.329 45.9345L160.965 28.9864C157.308 27.65 153.235 29.6165 151.873 33.3755Z" fill="#151A21"/>
<path d="M175.8 9.72971C119.806 164.238 130.687 134.219 115.25 176.814C113.889 180.573 109.746 182.51 105.999 181.143C102.256 179.776 100.327 175.616 101.688 171.857C113.919 138.108 125.866 105.137 162.238 4.77241C163.605 1.00853 167.742 -0.928969 171.49 0.438395C175.233 1.81059 177.167 5.96583 175.8 9.72971Z" fill="#151A21"/>
<path d="M175.8 9.72971L129.957 136.228L142.87 171.857C144.231 175.616 142.302 179.776 138.559 181.143C134.811 182.51 130.669 180.573 129.308 176.814L122.279 157.42V115.036L162.238 4.77241C163.605 1.00853 167.742 -0.928969 171.49 0.438395C175.233 1.81059 177.167 5.96583 175.8 9.72971Z" fill="#151A21"/>
<path d="M84.3159 29.0439L4.7501 58.1287C1.0048 59.4975 -0.92582 63.6566 0.437113 67.4181L24.4604 133.706C25.8234 137.468 29.9646 139.407 33.7099 138.038L113.276 108.954C117.021 107.585 118.952 103.426 117.589 99.6642L93.5654 33.376C92.202 29.6145 88.0607 27.6751 84.3159 29.0439Z" fill="#F0F7FF"/>
<path d="M12.4487 100.562L52.6839 85.854L67.1638 125.809L33.9463 137.951C30.0726 139.367 25.8231 137.465 24.4606 133.705L12.4487 100.562Z" fill="#151A21"/>
<path d="M93.5648 33.3755L105.576 66.5198L52.5888 85.8891L38.1089 45.9345L84.4731 28.9864C88.1294 27.65 92.2024 29.6165 93.5648 33.3755Z" fill="#151A21"/>
<path d="M69.6377 9.72971L115.481 136.228L102.568 171.857C101.207 175.616 103.136 179.776 106.879 181.143C110.627 182.51 114.769 180.573 116.13 176.814L123.159 157.42V115.036L83.1997 4.77241C81.8334 1.00853 77.696 -0.928969 73.9483 0.438395C70.2054 1.81059 68.2714 5.96583 69.6377 9.72971Z" fill="#151A21"/>
</svg>
