<svg width="49" height="49" viewBox="0 0 49 49" fill="none" xmlns="http://www.w3.org/2000/svg">
<circle cx="24.4956" cy="24.477" r="24.477" fill="#151A21"/>
<path d="M24.4962 45.1292C35.9023 45.1292 45.1487 35.8827 45.1487 24.4767C45.1487 13.0706 35.9023 3.82422 24.4962 3.82422C13.0902 3.82422 3.84375 13.0706 3.84375 24.4767C3.84375 35.8827 13.0902 45.1292 24.4962 45.1292Z" fill="#F0F0F0"/>
<path d="M45.1482 24.4777C45.1482 15.5979 39.5437 8.02783 31.6792 5.10986V43.8457C39.5437 40.9275 45.1482 33.3576 45.1482 24.4777Z" fill="#D80027"/>
<path d="M3.84326 24.4772C3.84326 33.3571 9.44783 40.9271 17.3123 43.8452V5.10938C9.44783 8.02734 3.84326 15.5974 3.84326 24.4772Z" fill="#D80027"/>
</svg>
