<svg width="48" height="48" viewBox="0 0 48 48" fill="none" xmlns="http://www.w3.org/2000/svg">
<path d="M24.4417 47.1466C37.4063 47.1466 47.9161 36.6367 47.9161 23.6722C47.9161 10.7076 37.4063 0.197754 24.4417 0.197754C11.4771 0.197754 0.967285 10.7076 0.967285 23.6722C0.967285 36.6367 11.4771 47.1466 24.4417 47.1466Z" fill="#151A21"/>
<path d="M38.4674 25.8847V35.5627H32.8563V26.5333C32.8563 24.2662 32.0462 22.7179 30.0146 22.7179C28.4643 22.7179 27.5432 23.7603 27.1365 24.7696C26.9888 25.1303 26.9507 25.6312 26.9507 26.1371V35.5623H21.3392C21.3392 35.5623 21.4146 20.2695 21.3392 18.6865H26.9511V21.078C26.9398 21.0968 26.9239 21.1152 26.9139 21.1332H26.9511V21.078C27.6968 19.9306 29.0267 18.2902 32.0081 18.2902C35.6997 18.2902 38.4674 20.7022 38.4674 25.8847ZM15.4692 10.5518C13.5497 10.5518 12.2939 11.8117 12.2939 13.4671C12.2939 15.0874 13.5133 16.3837 15.3955 16.3837H15.4319C17.389 16.3837 18.6059 15.0874 18.6059 13.4671C18.5687 11.8117 17.389 10.5518 15.4692 10.5518ZM12.6275 35.5627H18.2368V18.6865H12.6275V35.5627Z" fill="white"/>
</svg>
