<svg width="47" height="48" viewBox="0 0 47 48" fill="none" xmlns="http://www.w3.org/2000/svg">
<path d="M23.493 47.1466C36.4576 47.1466 46.9674 36.6367 46.9674 23.6722C46.9674 10.7076 36.4576 0.197754 23.493 0.197754C10.5284 0.197754 0.0185547 10.7076 0.0185547 23.6722C0.0185547 36.6367 10.5284 47.1466 23.493 47.1466Z" fill="#151A21"/>
<path d="M31.9086 19.9136C25.1284 19.9136 25.1196 26.6683 25.1196 26.703C25.1196 26.703 24.6552 33.4661 31.9086 33.4661C31.9086 33.4661 37.9578 33.8101 37.9578 28.7593H34.8516C34.8516 28.7593 34.9546 30.6608 32.012 30.6608C32.012 30.6608 28.9058 30.8675 28.9058 27.5889H38.0612C38.0612 27.5889 39.068 19.9136 31.9086 19.9136ZM28.8711 25.2226C28.8711 25.2226 29.2498 22.5034 31.9777 22.5034C34.714 22.5034 34.6709 25.2226 34.6709 25.2226H28.8711ZM21.1104 23.4847C21.1104 23.4847 23.8036 23.2868 23.8036 20.1203C23.8036 16.9627 21.6009 15.4136 18.8043 15.4136H9.60547V33.0958H18.8035C18.8035 33.0958 24.4225 33.2682 24.4225 27.873C24.4229 27.873 24.664 23.4847 21.1104 23.4847ZM13.6586 18.5541H18.8039C18.8039 18.5541 20.0518 18.5541 20.0518 20.3953C20.0518 22.2365 19.3203 22.5034 18.4855 22.5034H13.6586V18.5541ZM18.5462 29.9553H13.6586V25.2226H18.8039C18.8039 25.2226 20.6715 25.2054 20.6627 27.6575C20.6627 29.723 19.2776 29.9381 18.5462 29.9553ZM28.1053 16.4547V18.6319H35.4023V16.4547H28.1053Z" fill="white"/>
</svg>
