<svg width="48" height="48" viewBox="0 0 48 48" fill="none" xmlns="http://www.w3.org/2000/svg">
<circle cx="24" cy="24" r="24" fill="#151A21"/>
<path d="M24.2505 44.5001C35.4335 44.5001 44.4991 35.4345 44.4991 24.2515C44.4991 13.0685 35.4335 4.00293 24.2505 4.00293C13.0676 4.00293 4.00195 13.0685 4.00195 24.2515C4.00195 35.4345 13.0676 44.5001 24.2505 44.5001Z" fill="white"/>
<path d="M43.3411 17.498H30.8647C31.4064 21.8237 31.4099 26.5899 30.875 30.9209H43.3677C44.0966 28.8315 44.4979 26.5876 44.4979 24.2498C44.4982 21.8811 44.088 19.6098 43.3411 17.498Z" fill="#E4E4E4"/>
<path d="M30.8654 17.4984H43.3415C43.3393 17.492 43.3373 17.4866 43.3351 17.4808C40.7434 10.1734 34.0774 4.79715 26.0679 4.0835C29.1677 5.78252 30.0728 11.1655 30.8654 17.4984Z" fill="#66A4D2"/>
<path d="M26.0679 44.414C34.0917 43.6991 40.7674 38.3043 43.3488 30.9775C43.3556 30.958 43.3613 30.9387 43.3683 30.9199H30.8753C30.089 37.287 29.1801 42.708 26.0679 44.414Z" fill="#66A4D2"/>
<path d="M4 24.2493C4 26.5875 4.40124 28.831 5.1302 30.9204H31.918C32.4528 26.589 32.4493 21.8232 31.9077 17.4976H5.15714C4.41022 19.6094 4 21.8807 4 24.2493Z" fill="#F3F4F5"/>
<path d="M5.1651 17.4804C5.16288 17.4861 5.16091 17.4916 5.15869 17.498H31.9093C31.1168 11.1651 29.1689 5.78221 26.0695 4.08319C25.47 4.0301 24.8638 4 24.2507 4C15.4418 4 7.95056 9.62596 5.1651 17.4804Z" fill="#75ABDC"/>
<path d="M31.9181 30.9204H5.13037C5.13713 30.9393 5.1432 30.9585 5.14986 30.9779C7.92446 38.8525 15.4259 44.4982 24.2491 44.4982C24.8624 44.4982 25.4686 44.4681 26.068 44.4144C29.1806 42.7085 31.1319 37.2875 31.9181 30.9204Z" fill="#75ABDC"/>
</svg>
