<svg xmlns="http://www.w3.org/2000/svg" xmlns:xlink="http://www.w3.org/1999/xlink" width="1920" height="1351" viewBox="0 0 1920 1351">
  <defs>
    <clipPath id="clip-Web_1920_1">
      <rect width="1920" height="1351"/>
    </clipPath>
  </defs>
  <g id="Web_1920_1" data-name="Web 1920 – 1" clip-path="url(#clip-Web_1920_1)">
    <path id="Trazado_5270" data-name="Trazado 5270" d="M2214.14,1671.26C1115.48,1137.07,976.687,1934.42-23.093,1536.13c-248.742-704.409-82.219-120.32-263.664-746.665C-368.439,507.5-344.48,854.143-573,207,285.554,745.435,2367.23-79.3,2214.14,1671.26Z" transform="translate(5 -387)" fill="#151a21"/>
    <path id="Trazado_5271" data-name="Trazado 5271" d="M2214.14,1671.26C1115.48,1137.07,976.687,1934.42-23.093,1536.13c-248.742-704.409-82.219-120.32-263.664-746.665C-368.439,507.5-344.48,854.143-573,207,285.554,745.435,2367.23-79.3,2214.14,1671.26Z" transform="translate(-36 -387)" fill="#151a21"/>
  </g>
</svg>
