<svg xmlns="http://www.w3.org/2000/svg" xmlns:xlink="http://www.w3.org/1999/xlink" width="168.626" height="166.998" viewBox="0 0 168.626 166.998">
  <defs>
    <filter id="Rectángulo_196" x="0" y="0" width="165.211" height="165.21" filterUnits="userSpaceOnUse">
      <feOffset dy="3" input="SourceAlpha"/>
      <feGaussianBlur stdDeviation="3" result="blur"/>
      <feFlood flood-opacity="0.161"/>
      <feComposite operator="in" in2="blur"/>
      <feComposite in="SourceGraphic"/>
    </filter>
  </defs>
  <g id="Grupo_807" data-name="Grupo 807" transform="translate(-4453.211 -4697.419)">
    <g id="Grupo_806" data-name="Grupo 806" transform="translate(796.054 67.43) rotate(7)">
      <g id="gameDie" transform="translate(4188.116 4121)">
        <rect id="Rectángulo_193" data-name="Rectángulo 193" width="119.434" height="119.434" rx="14.051" transform="translate(43.442 33.033) rotate(5)" fill="#c7b9ff"/>
        <path id="Trazado_133" data-name="Trazado 133" d="M21,0h92.387a21,21,0,0,1,21,21v93.837a21,21,0,0,1-21,21H14a14,14,0,0,1-14-14V21A21,21,0,0,1,21,0Z" transform="translate(177.678 43.031) rotate(93.956)"/>
        <rect id="Rectángulo_195" data-name="Rectángulo 195" width="115.529" height="116.318" transform="matrix(0.996, 0.087, -0.087, 0.996, 46.476, 34.36)"/>
        <g transform="matrix(0.99, -0.12, 0.12, 0.99, 6.04, 28.78)" filter="url(#Rectángulo_196)">
          <rect id="Rectángulo_196-2" data-name="Rectángulo 196" width="119.434" height="119.434" rx="14.051" transform="translate(36.61 8.78) rotate(12)" fill="none" stroke="#000" stroke-width="4.684"/>
        </g>
      </g>
      <rect id="Rectángulo_198" data-name="Rectángulo 198" width="114.956" height="121" rx="17" transform="translate(4234.677 4156.504) rotate(5)" fill="#dc395f"/>
    </g>
    <path id="Trazado_136" data-name="Trazado 136" d="M98.792,90.48a6.9,6.9,0,0,0,8.053-5.672,7.036,7.036,0,0,0-5.954-7.948,6.9,6.9,0,0,0-8.052,5.669A7.037,7.037,0,0,0,98.792,90.48ZM78.649,124.588a23.279,23.279,0,0,0-1.407,5.016C76.318,135.6,79,140.12,86,141.26c5.808.945,11.042-1.693,15.28-6.637l-3.334,7.862,11.534,1.878L120.1,119.342c2.666-6.338,6.388-9.248,11.229-8.46,3.81.62,5.818,3.345,5.223,7.206a12.1,12.1,0,0,1-1.079,3.575l-5.247,11.44a17.94,17.94,0,0,0-1.5,4.965c-.878,5.694,1.878,10.412,8.985,11.569,6.077.989,11.512-2.084,15.616-10.9l-4.265-2.464c-3.222,5.828-5.351,6.63-6.9,6.378s-2.213-1.4-1.9-3.433a13.441,13.441,0,0,1,1-3.068l5.1-11.149a25.621,25.621,0,0,0,2.275-7.227c1.348-8.742-3.3-14.176-9.794-15.231-6.076-.989-13.09,3.414-17.056,8.6l3.84-9.849-17.611-2.867-3.859,8.6,8.239,1.341-8.164,19.222c-5.331,8.093-12.672,7.044-13.559,6.691-1.457-.581-2.334-1.3-2.036-3.237a19.069,19.069,0,0,1,1.438-4.535l12.386-28.984L82.888,94.344l-3.859,8.6,8.136,1.324-8.516,20.322" transform="translate(4420.807 4662.478)" fill="#fff"/>
  </g>
</svg>
