<svg xmlns="http://www.w3.org/2000/svg" xmlns:xlink="http://www.w3.org/1999/xlink" width="974.395" height="1113.652" viewBox="0 0 974.395 1113.652">
  <defs>
    <clipPath id="clip-path">
      <rect id="Rectángulo_267" data-name="Rectángulo 267" width="314.731" height="85.919" transform="translate(634.543 658.377)" fill="#fff"/>
    </clipPath>
  </defs>
  <g id="Grupo_2987" data-name="Grupo 2987" transform="translate(-822.499 -4417.992)">
    <g id="Grupo_2986" data-name="Grupo 2986" transform="translate(704 4418)">
      <path id="Trazado_5287" data-name="Trazado 5287" d="M175,704.5H449V76H591" fill="none" stroke="rgba(21,26,33,0.8)" stroke-linejoin="round" stroke-width="2"/>
      <path id="Trazado_5288" data-name="Trazado 5288" d="M610.016,611H978.862a19,19,0,0,1,19,19V836.167a42,42,0,0,1-42,42H631.016a40,40,0,0,1-40-40V630A19,19,0,0,1,610.016,611Z" fill="none" stroke="#151a21" stroke-width="2"/>
      <rect id="Rectángulo_260" data-name="Rectángulo 260" width="310.724" height="65.368" rx="30" transform="translate(638.064 765.422)" fill="rgba(21,26,33,0.8)"/>
      <g id="Grupo_2985" data-name="Grupo 2985" clip-path="url(#clip-path)">
        <rect id="Rectángulo_261" data-name="Rectángulo 261" width="135" height="5" transform="translate(649.408 660.877)" fill="rgba(21,26,33,0.8)" opacity="0.5"/>
        <rect id="Rectángulo_262" data-name="Rectángulo 262" width="105" height="5" transform="translate(649.408 675.877)" fill="rgba(21,26,33,0.8)" opacity="0.5"/>
        <circle id="Elipse_115" data-name="Elipse 115" cx="12.5" cy="12.5" r="12.5" transform="translate(909.408 658.377)" fill="rgba(21,26,33,0.8)"/>
        <circle id="Elipse_116" data-name="Elipse 116" cx="12" cy="12" r="12" transform="translate(909.908 658.877)" fill="none" stroke="rgba(21,26,33,0.8)" stroke-width="1"/>
        <rect id="Rectángulo_263" data-name="Rectángulo 263" width="48" height="23" rx="11.5" transform="translate(885.408 659.377)" fill="none" stroke="rgba(21,26,33,0.8)" stroke-width="2"/>
        <rect id="Rectángulo_264" data-name="Rectángulo 264" width="135" height="5" transform="translate(649.408 720.877)" fill="rgba(21,26,33,0.8)" opacity="0.5"/>
        <rect id="Rectángulo_265" data-name="Rectángulo 265" width="105" height="5" transform="translate(649.408 735.877)" fill="rgba(21,26,33,0.8)" opacity="0.5"/>
        <circle id="Elipse_117" data-name="Elipse 117" cx="11.5" cy="11.5" r="11.5" transform="translate(885.408 719.377)" fill="none" stroke="rgba(21,26,33,0.8)" stroke-width="2"/>
        <rect id="Rectángulo_266" data-name="Rectángulo 266" width="48" height="23" rx="11.5" transform="translate(885.408 719.377)" fill="none" stroke="rgba(21,26,33,0.8)" stroke-width="2"/>
      </g>
      <rect id="Rectángulo_268" data-name="Rectángulo 268" width="54.513" height="5.447" rx="2.724" transform="translate(766.717 618.019)" fill="rgba(21,26,33,0.8)"/>
      <rect id="Rectángulo_269" data-name="Rectángulo 269" width="321.626" height="153.396" rx="40" transform="translate(632.52 134.999)" fill="#eee"/>
      <rect id="Rectángulo_270" data-name="Rectángulo 270" width="319.626" height="151.396" rx="39" transform="translate(633.52 135.999)" fill="none" stroke="rgba(238,238,238,0.35)" stroke-width="2"/>
      <ellipse id="Elipse_118" data-name="Elipse 118" cx="14.026" cy="14.986" rx="14.026" ry="14.986" transform="translate(926.283 68.936)" fill="rgba(21,26,33,0.8)"/>
      <path id="Trazado_5290" data-name="Trazado 5290" d="M953.835,83.921c0,8.032-6.086,14.486-13.526,14.486s-13.526-6.454-13.526-14.486,6.087-14.486,13.526-14.486S953.835,75.89,953.835,83.921Z" fill="none" stroke="rgba(21,26,33,0.8)" stroke-width="1"/>
      <rect id="Rectángulo_271" data-name="Rectángulo 271" width="54.104" height="27.972" rx="13.986" transform="translate(899.23 69.936)" fill="none" stroke="rgba(21,26,33,0.8)" stroke-width="2"/>
      <rect id="Rectángulo_272" data-name="Rectángulo 272" width="135" height="5" transform="translate(642.783 70.924)" fill="rgba(21,26,33,0.8)" opacity="0.5"/>
      <rect id="Rectángulo_273" data-name="Rectángulo 273" width="105" height="5" transform="translate(642.783 85.924)" fill="rgba(21,26,33,0.8)" opacity="0.5"/>
      <path id="Trazado_5292" data-name="Trazado 5292" d="M184.735,1113.64l-.673-153.084,907.828-3.992L1091.32,827" fill="none" stroke="#151a21" stroke-width="2"/>
      <path id="Trazado_5293" data-name="Trazado 5293" d="M956.133,4.029c-40.986-5.994-259.577-1.5-314.731,0s-52.118,54.448-52.118,54.448V812.762S582.706,877.4,633.306,879.2s278.8,0,318.779,0,47.564-35.965,47.564-52.949V46.489S997.119,10.024,956.133,4.029Z" fill="none" stroke="rgba(21,26,33,0.8)" stroke-width="2"/>
      <path id="Sustracción_1" data-name="Sustracción 1" d="M-234.25-3774.7H-451.5v-611h217.25a18.9,18.9,0,0,1,7.4,1.493,18.935,18.935,0,0,1,6.039,4.072,18.926,18.926,0,0,1,4.072,6.039,18.885,18.885,0,0,1,1.493,7.4v573a18.883,18.883,0,0,1-1.493,7.4,18.936,18.936,0,0,1-4.072,6.039,18.931,18.931,0,0,1-6.039,4.072A18.88,18.88,0,0,1-234.25-3774.7Z" transform="translate(571 4519.289)" fill="none" stroke="#000" stroke-width="2"/>
    </g>
    <line id="Línea_13" data-name="Línea 13" y1="1" x2="91" transform="translate(1703.5 5245.5)" fill="none" stroke="#000" stroke-width="1"/>
  </g>
</svg>
