<svg width="230" height="230" viewBox="0 0 230 230" fill="none" xmlns="http://www.w3.org/2000/svg">
<g filter="url(#filter0_d)">
<rect x="-1.89907" y="-2.71216" width="119.587" height="119.545" rx="14.0511" transform="matrix(0.984857 0.173367 -0.173929 0.984758 68.2046 48.5821)" fill="#FFCA28"/>
<rect x="-1.89907" y="-2.71216" width="119.587" height="119.545" rx="14.0511" transform="matrix(0.984857 0.173367 -0.173929 0.984758 68.2046 48.5821)" stroke="black" stroke-width="4.6837"/>
<path d="M171.001 65.3548L76.5716 49.9862C70.7969 49.0463 65.399 52.9344 64.5149 58.6706L50.0573 152.47C49.1732 158.206 53.1377 163.618 58.9124 164.558L153.341 179.927C159.116 180.867 164.514 176.978 165.398 171.242L179.856 77.4428C180.74 71.7066 176.775 66.2947 171.001 65.3548Z" fill="#DC395F"/>
<path d="M98.7912 90.4803C102.602 91.1005 106.249 88.6722 106.845 84.8085C107.44 80.9475 104.702 77.4804 100.891 76.8601C97.0794 76.2398 93.4334 78.6679 92.8383 82.5289C92.2428 86.3922 94.9801 89.86 98.7912 90.4803ZM78.6482 124.588C77.9703 126.249 77.4763 128.082 77.2416 129.604C76.3172 135.602 78.9991 140.12 86.0028 141.26C91.8112 142.205 97.0449 139.567 101.283 134.623L97.9485 142.485L109.483 144.363L120.097 119.342C122.763 113.004 126.484 110.094 131.325 110.882C135.136 111.502 137.144 114.227 136.549 118.088C136.376 119.206 136.086 120.408 135.47 121.663L130.222 133.103C129.441 134.748 128.969 136.443 128.719 138.068C127.841 143.762 130.597 148.48 137.704 149.637C143.78 150.626 149.215 147.553 153.319 138.739L149.054 136.275C145.833 142.103 143.703 142.905 142.158 142.653C140.613 142.402 139.946 141.252 140.259 139.22C140.4 138.306 140.763 137.324 141.26 136.152L146.357 125.003C147.604 122.394 148.288 120.011 148.633 117.776C149.98 109.034 145.327 103.6 138.839 102.545C132.763 101.556 125.749 105.959 121.782 111.149L125.622 101.3L108.012 98.4334L104.152 107.031L112.392 108.372L104.228 127.594C98.8963 135.687 91.5554 134.638 90.6682 134.285C89.2116 133.704 88.3341 132.982 88.6322 131.048C88.8042 129.932 89.2573 128.362 90.0702 126.513L102.457 97.5293L82.8879 94.3444L79.0286 102.942L87.1645 104.266L78.6487 124.588" fill="white"/>
</g>
<defs>
<filter id="filter0_d" x="45.8984" y="45.4609" width="148.166" height="148.065" filterUnits="userSpaceOnUse" color-interpolation-filters="sRGB">
<feFlood flood-opacity="0" result="BackgroundImageFix"/>
<feColorMatrix in="SourceAlpha" type="matrix" values="0 0 0 0 0 0 0 0 0 0 0 0 0 0 0 0 0 0 127 0"/>
<feOffset dx="9.3674" dy="9.3674"/>
<feColorMatrix type="matrix" values="0 0 0 0 0 0 0 0 0 0 0 0 0 0 0 0 0 0 1 0"/>
<feBlend mode="normal" in2="BackgroundImageFix" result="effect1_dropShadow"/>
<feBlend mode="normal" in="SourceGraphic" in2="effect1_dropShadow" result="shape"/>
</filter>
</defs>
</svg>
